<?xml version="1.0" encoding="utf-8"?>
<!-- Generator: Adobe Illustrator 17.1.0, SVG Export Plug-In . SVG Version: 6.00 Build 0)  -->
<!DOCTYPE svg PUBLIC "-//W3C//DTD SVG 1.1//EN" "http://www.w3.org/Graphics/SVG/1.1/DTD/svg11.dtd">
<svg version="1.1" id="Capa_1" xmlns="http://www.w3.org/2000/svg" xmlns:xlink="http://www.w3.org/1999/xlink" x="0px" y="0px"
	 viewBox="0 0 396.9 170.1" style="enable-background:new 0 0 396.9 170.1;" xml:space="preserve">
<g id="logo">
	<path style="fill:#FFFFFF;" d="M136.3,61.7c7.7,13.3,8.7,27.2,2.8,41.4c-6.7,16.2-19.1,26-35.7,30.7c-8.8,2.5-17.6,3.2-23.6,3.1
		c-14.8-0.4-26.2-2.4-37.1-7c-11.4-4.9-21.1-11.9-27.3-22.9c-4.7-8.2-6.6-17.2-5.6-26.5c1.8-16,9.3-29.2,21.1-39.9
		c1.1-1,1.5-1.8,1.1-3.5c-1-3.2,0.4-5.7,3.9-6.6c5.2-1.4,10.3-2.8,15.6-3.6c17.6-2.9,34.7-0.7,51.2,6.1
		C116.8,39.1,128.5,48.3,136.3,61.7z M130.8,94.2c2.8-7.7,2.9-15.5,0-23.3c-4.3-11.6-12.7-19.3-23.6-24.4c-12.1-5.7-25-8.2-38.4-7.8
		c-7.1,0.3-14.1,1.7-21.2,2.7c-2.5,0.4-4.9,1.1-7.3,1.8c-1,0.3-2.1,0.7-2.8,1.4c-9.9,10-16.5,21.9-18.6,35.9
		c-1.4,9.1,0.3,17.7,5.7,25.3c5.6,7.8,13.4,12.6,22.3,15.8c9.1,3.2,18.4,4.5,30.1,4.5c2.2-0.1,6.8-0.6,11.3-1.1
		c2.9-0.4,5.9-1,8.7-1.7C113,119.1,124.9,110,130.8,94.2z"/>
	<path style="fill:#FFFFFF;" d="M107.6,93.8c1.8,2.2,0.8,4.9-2,5.3c-1.1,0.1-2.4,0.3-3.5,0.3c-8.7,0-17.4,0-26.1,0l0,0
		c-8.7,0-17.4,0-26.1,0c-1,0-2-0.4-2.9-1c-0.3-0.1-0.6-1.1-0.4-1.7c0.1-0.4,0.7-0.8,1.3-1c4.7-0.6,9.5-1.3,14.2-1.7
		c6.1-0.6,12.4-1.1,18.7-1.5c7.4-0.4,14.9-0.7,22.5-1C104.9,91.7,106.5,92.4,107.6,93.8z"/>
	<path style="fill:#FFFFFF;" d="M97.8,78.8c0.7,0.7,1.1,2.2,0.8,3.1c-0.1,0.7-1.5,1.7-2.4,1.7c-4.7,0.3-9.6,0.4-14.4,0.4
		c-5.9,0-11.9-0.3-17.7-0.6c-6.7-0.3-13.5-0.7-20.2-1c-0.6,0-1.3-0.1-1.5-0.4c-0.4-0.4-1-1.3-1-2c0-0.3,0.8-1,1.4-1
		c3.8-0.4,7.4-0.7,11.2-0.8c8.1-0.3,16.3-0.6,23.3-0.8c6.4,0,11.9-0.1,17.3,0C95.9,77.5,97.1,78.1,97.8,78.8z"/>
	<path style="fill:#FFFFFF;" d="M96.4,64.5c1.1,2,0.1,3.9-2.1,4.2c-2.2,0.1-4.6,0.1-6.8,0.1c-10.9-0.3-21.9-0.7-32.8-1.1
		c-4.5-0.1-8.9-0.8-13.3-1.3c-0.6,0-1.3-0.1-1.7-0.4c-0.6-0.4-1.1-1.1-1.3-1.7c0-0.4,0.8-1.1,1.4-1.3c2.8-0.4,5.4-1,8.2-1.1
		c7.3-0.6,14.5-0.8,23.9-1.4c5.6,0.4,13,1,20.4,1.7C94.1,62.3,95.5,63,96.4,64.5z"/>
</g>
<g>
	<path style="fill:#FFFFFF;" d="M200.9,93.3c0,3.7,0.1,7,0.3,9.8h-5.8l-0.4-5.8H195c-1.7,2.9-5.5,6.7-11.8,6.7
		c-5.6,0-12.4-3.1-12.4-15.7V67.2h6.5v19.8c0,6.8,2.1,11.4,8,11.4c4.4,0,7.4-3,8.6-5.9c0.4-1,0.6-2.1,0.6-3.3v-22h6.5V93.3z"/>
	<path style="fill:#FFFFFF;" d="M250.4,110.5c-6.5-1.8-12.3-3.7-18.1-6c-1-0.3-2-0.6-3-0.7c-10.8-0.6-20.4-8.5-20.4-23.6
		c0-14.4,8.9-24.4,22.2-24.4c13.5,0,21.5,10.4,21.5,23.5c0,11.2-5.2,18.8-12,21.5v0.3c4,1.1,8.5,2.1,12.3,2.8L250.4,110.5z
		 M243.5,79.7c0-8.9-4.3-17-12.8-17c-8.5,0-13,8.1-13,17.4c-0.1,9.3,4.7,17,12.8,17C238.8,97,243.5,89.4,243.5,79.7z"/>
	<path style="fill:#FFFFFF;" d="M291.1,92.5c0,4.2,0.1,7.6,0.3,10.5h-7.8l-0.4-5.3H283c-1.5,2.5-5,6.1-11.2,6.1
		c-6.4,0-12.2-3.8-12.2-15.3V68h8.9v19.1c0,5.8,1.9,9.6,6.6,9.6c3.5,0,5.8-2.5,6.8-4.8c0.3-0.8,0.5-1.7,0.5-2.7V68h8.9V92.5z"/>
	<path style="fill:#FFFFFF;" d="M306.9,88c0.2,6.3,5.2,9.1,10.8,9.1c4.1,0,7.1-0.6,9.7-1.6l1.3,6.1c-3,1.2-7.2,2.2-12.2,2.2
		c-11.4,0-18.1-7-18.1-17.7c0-9.7,5.9-18.9,17.1-18.9c11.4,0,15.1,9.4,15.1,17.1c0,1.7-0.1,3-0.3,3.7H306.9z M322.3,81.8
		c0.1-3.2-1.4-8.6-7.3-8.6c-5.5,0-7.8,5-8.1,8.6H322.3z"/>
	<path style="fill:#FFFFFF;" d="M337.4,94.9c2,1.2,5.8,2.5,9,2.5c3.9,0,5.6-1.6,5.6-3.9c0-2.4-1.4-3.6-5.8-5.1
		c-6.8-2.4-9.7-6.1-9.6-10.2c0-6.2,5.1-11,13.2-11c3.9,0,7.3,1,9.3,2.1l-1.7,6.3c-1.5-0.9-4.3-2-7.4-2c-3.2,0-4.9,1.5-4.9,3.7
		c0,2.2,1.7,3.3,6.1,4.9c6.3,2.3,9.3,5.5,9.4,10.7c0,6.3-5,10.9-14.3,10.9c-4.2,0-8.1-1-10.7-2.4L337.4,94.9z"/>
	<path style="fill:#FFFFFF;" d="M378,58v10h8.4v6.6H378v15.5c0,4.2,1.2,6.5,4.5,6.5c1.5,0,2.7-0.2,3.5-0.4l0.1,6.8
		c-1.3,0.5-3.6,0.9-6.4,0.9c-3.2,0-6-1.1-7.6-2.9c-1.9-2-2.7-5.2-2.7-9.8V74.6h-5V68h5v-7.9L378,58z"/>
</g>
<g style="display:none;">
	<path style="display:inline;fill:#FFFFFF;" d="M355.3,122.5c0,0.7-0.5,1.2-1.2,1.2c-0.7,0-1.2-0.5-1.2-1.2s0.5-1.2,1.2-1.2
		C354.8,121.2,355.3,121.8,355.3,122.5z"/>
	<path style="display:inline;fill:#FFFFFF;" d="M360.6,110.1l0.3,2.2c0.8-1.9,2.7-2.4,4.1-2.4c2.2,0,3.6,1.2,4.2,2.8
		c0.6-1.5,2.5-2.8,4.4-2.8c3.3,0,4.8,1.9,4.8,5.1v8.7h-1.6v-8.8c0-2.2-1.3-3.4-3.4-3.4c-2.2,0-3.8,1.7-3.8,4v8.3h-1.6v-8.9
		c0-2.2-1.5-3.4-3.4-3.4c-2.2,0-3.8,1.8-3.8,4v8.3h-1.6v-13.5H360.6z"/>
	<path style="display:inline;fill:#FFFFFF;" d="M388.5,109.8c3.9,0,6.2,3.4,6.2,6.8c0,0.5-0.1,0.8-0.1,0.8h-11.1
		c0.2,2.8,2.4,4.9,5.4,4.9c1.4,0,2.9-0.4,4.2-1l0.5,1.3c-1,0.5-2.8,1.2-4.8,1.2c-4.1,0-7-3-7-7C381.9,113,384.7,109.8,388.5,109.8z
		 M393.2,116.2c-0.1-2.4-1.7-4.9-4.6-4.9c-2.8,0-4.9,2.2-5.1,4.9H393.2z"/>
</g>
<g>
</g>
<g>
</g>
<g>
</g>
<g>
</g>
<g>
</g>
<g>
</g>
</svg>
